<?xml version="1.0" encoding="utf-8"?>
<!-- Generator: Adobe Illustrator 16.0.0, SVG Export Plug-In . SVG Version: 6.00 Build 0)  -->
<!DOCTYPE svg PUBLIC "-//W3C//DTD SVG 1.1//EN" "http://www.w3.org/Graphics/SVG/1.1/DTD/svg11.dtd">
<svg version="1.1" id="Layer_1" xmlns="http://www.w3.org/2000/svg" xmlns:xlink="http://www.w3.org/1999/xlink" x="0px" y="0px"
	 width="32px" height="32px" viewBox="0 0 32 32" enable-background="new 0 0 32 32" xml:space="preserve">
<path fill="#FFFFFF" d="M32,16c0-8.839-7.167-16-16-16C7.161,0,0,7.161,0,16c0,7.984,5.849,14.604,13.5,15.803V20.626H9.437v-4.625
	H13.5v-3.527c0-4.009,2.385-6.223,6.041-6.223c1.751,0,3.584,0.312,3.584,0.312V10.5h-2.021c-1.982,0-2.604,1.235-2.604,2.5v3h4.438
	l-0.713,4.625H18.5v11.177C26.145,30.604,32,23.982,32,16L32,16z"/>
</svg>
