<?xml version="1.0" standalone="no"?>
<!DOCTYPE svg PUBLIC "-//W3C//DTD SVG 20010904//EN"
 "http://www.w3.org/TR/2001/REC-SVG-20010904/DTD/svg10.dtd">
<svg version="1.0" xmlns="http://www.w3.org/2000/svg"
 width="792.000000pt" height="173.000000pt" viewBox="0 0 792.000000 173.000000"
 preserveAspectRatio="xMidYMid meet">

<g transform="translate(0.000000,173.000000) scale(0.100000,-0.100000)"
fill="#000000" stroke="none">
<path d="M0 865 l0 -865 3960 0 3960 0 0 865 0 865 -3960 0 -3960 0 0 -865z
m3050 490 c31 -16 60 -61 60 -92 0 -31 -36 -79 -69 -92 -64 -27 -131 19 -131
89 0 51 12 75 48 94 35 19 56 20 92 1z m4500 -505 l0 -470 -90 0 -90 0 0 470
0 470 90 0 90 0 0 -470z m-6850 189 c79 -143 146 -257 150 -252 4 4 70 122
145 261 l137 252 94 0 94 0 0 -460 0 -460 -95 0 -95 0 -2 288 -3 287 -139
-257 -140 -257 -21 37 c-11 20 -75 136 -140 257 l-120 220 -3 -287 -2 -288
-95 0 -95 0 0 460 0 460 94 0 94 0 142 -261z m5060 126 l0 -95 75 0 75 0 0
-75 0 -75 -59 0 c-96 0 -91 9 -91 -166 0 -174 11 -219 54 -230 14 -3 39 -1 55
4 29 10 29 10 51 -49 22 -58 22 -60 4 -74 -22 -17 -108 -45 -138 -45 -71 0
-157 55 -182 117 -10 24 -14 87 -14 232 0 220 3 211 -66 211 l-34 0 0 74 0 75
48 3 47 3 3 93 3 92 84 0 85 0 0 -95z m-3142 -90 c60 -14 162 -59 162 -71 0
-4 -14 -32 -30 -63 l-31 -57 -59 29 c-39 20 -80 31 -123 34 -60 5 -67 4 -91
-20 -52 -52 -31 -76 107 -118 193 -59 247 -108 247 -223 0 -73 -18 -114 -69
-158 -54 -46 -116 -63 -221 -61 -92 1 -169 23 -247 69 -44 26 -44 26 -27 51 9
15 25 41 36 60 23 39 24 39 63 13 40 -27 148 -60 197 -60 77 0 124 48 93 96
-14 22 -37 31 -180 73 -137 40 -189 94 -190 196 0 165 160 258 363 210z m1117
-24 c33 -17 71 -41 84 -55 l23 -25 -36 -32 c-87 -76 -80 -73 -127 -42 -54 35
-136 39 -189 7 -89 -52 -126 -175 -80 -269 54 -112 197 -147 287 -71 l29 24
59 -53 60 -53 -24 -26 c-39 -41 -133 -84 -204 -91 -169 -18 -342 93 -392 252
-24 76 -17 192 15 259 29 59 110 143 165 169 114 54 228 56 330 6z m678 9 c71
-27 153 -100 192 -172 25 -45 30 -67 33 -143 5 -115 -18 -181 -89 -260 -181
-197 -498 -148 -612 95 -27 55 -31 76 -31 145 0 69 4 90 31 147 85 181 285
260 476 188z m816 14 c37 -10 66 -29 96 -59 68 -68 75 -104 75 -392 l0 -243
-90 0 -90 0 0 223 c0 196 -2 226 -18 256 -26 49 -76 74 -131 67 -54 -7 -86
-27 -111 -69 -18 -29 -20 -52 -20 -254 l0 -223 -95 0 -95 0 0 345 0 345 95 0
95 0 0 -42 0 -42 34 33 c37 36 121 70 172 71 17 0 54 -7 83 -16z m1241 -63 l0
-79 -42 -7 c-55 -9 -95 -29 -136 -68 -51 -49 -62 -103 -62 -304 l0 -173 -90 0
-90 0 0 345 0 345 90 0 90 0 0 -60 c0 -33 2 -60 4 -60 3 0 29 24 59 54 38 39
69 59 103 70 76 23 74 25 74 -63z m556 48 c82 -31 172 -121 203 -204 32 -85
27 -207 -12 -288 -36 -72 -119 -149 -195 -178 -80 -32 -207 -32 -277 0 -75 33
-122 69 -161 123 -136 185 -74 432 134 537 90 46 202 49 308 10z m-5374 -211
c3 -189 6 -228 21 -255 37 -69 113 -89 187 -51 75 39 80 57 80 311 l0 217 90
0 90 0 0 -345 0 -345 -90 0 -90 0 0 41 0 41 -42 -37 c-108 -92 -270 -81 -360
25 -54 62 -58 90 -58 369 l0 251 84 0 84 0 4 -222z m1448 -123 l0 -345 -95 0
-95 0 0 345 0 345 95 0 95 0 0 -345z"/>
<path d="M4189 902 c-43 -22 -59 -38 -82 -82 -25 -47 -28 -63 -24 -108 8 -78
45 -134 109 -166 61 -31 98 -32 153 -7 70 31 125 113 125 186 0 73 -55 155
-125 186 -56 26 -94 23 -156 -9z"/>
<path d="M6820 917 c-72 -23 -130 -111 -130 -198 0 -47 42 -132 77 -157 121
-86 274 -19 307 134 17 76 -41 180 -118 215 -46 21 -84 22 -136 6z"/>
</g>
</svg>
