<?xml version="1.0" encoding="utf-8"?>
<!-- Generator: Adobe Illustrator 16.0.0, SVG Export Plug-In . SVG Version: 6.00 Build 0)  -->
<!DOCTYPE svg PUBLIC "-//W3C//DTD SVG 1.1//EN" "http://www.w3.org/Graphics/SVG/1.1/DTD/svg11.dtd">
<svg version="1.1" id="Layer_1" xmlns="http://www.w3.org/2000/svg" xmlns:xlink="http://www.w3.org/1999/xlink" x="0px" y="0px"
	 width="450px" height="600px" viewBox="0 0 450 600" enable-background="new 0 0 450 600" xml:space="preserve">
<g>
	<path fill="#FFFFFF" d="M179.094,187.09v-56.616h7.979l18.145,28.644c4.2,6.636,7.476,12.6,10.164,18.396l0.168-0.084
		c-0.672-7.56-0.84-14.448-0.84-23.268v-23.688h6.888v56.616h-7.393l-17.976-28.728c-3.948-6.3-7.728-12.768-10.584-18.9
		l-0.252,0.084c0.42,7.14,0.588,13.944,0.588,23.352v24.192H179.094z"/>
	<path fill="#FFFFFF" d="M270.906,166.426c0,15.036-10.415,21.588-20.244,21.588c-11.004,0-19.487-8.064-19.487-20.916
		c0-13.608,8.904-21.588,20.16-21.588C263.01,145.511,270.906,153.994,270.906,166.426z M238.65,166.846
		c0,8.904,5.123,15.624,12.349,15.624c7.056,0,12.349-6.636,12.349-15.792c0-6.888-3.445-15.624-12.181-15.624
		C242.43,151.054,238.65,159.118,238.65,166.846z"/>
</g>
<g>
	<path fill="#FFFFFF" d="M128.653,265.98c0.084,2.52-1.764,4.536-4.704,4.536c-2.604,0-4.452-2.016-4.452-4.536
		c0-2.604,1.933-4.62,4.62-4.62C126.889,261.36,128.653,263.376,128.653,265.98z M120.421,318.061v-40.657h7.393v40.657H120.421z"/>
	<path fill="#FFFFFF" d="M140.076,288.408c0-4.2-0.084-7.644-0.336-11.004h6.469l0.336,6.552h0.252
		c2.268-3.864,6.048-7.476,12.768-7.476c5.544,0,9.744,3.36,11.508,8.148h0.168c1.26-2.268,2.856-4.032,4.536-5.292
		c2.436-1.848,5.124-2.856,8.988-2.856c5.376,0,13.355,3.528,13.355,17.64v23.94h-7.224v-23.017c0-7.812-2.856-12.516-8.82-12.516
		c-4.2,0-7.476,3.108-8.735,6.72c-0.336,1.008-0.589,2.352-0.589,3.696v25.117h-7.224V293.7c0-6.468-2.855-11.172-8.483-11.172
		c-4.62,0-7.98,3.696-9.156,7.392c-0.42,1.092-0.588,2.352-0.588,3.612v24.528h-7.225V288.408L140.076,288.408z"/>
	<path fill="#FFFFFF" d="M232.645,318.061l-0.588-5.125h-0.252c-2.269,3.192-6.637,6.049-12.433,6.049
		c-8.232,0-12.433-5.797-12.433-11.676c0-9.829,8.736-15.205,24.444-15.121v-0.84c0-3.36-0.924-9.408-9.24-9.408
		c-3.78,0-7.728,1.176-10.584,3.024l-1.68-4.872c3.359-2.184,8.231-3.612,13.355-3.612c12.433,0,15.456,8.484,15.456,16.632v15.205
		c0,3.527,0.168,6.973,0.672,9.744H232.645z M231.553,297.312c-8.064-0.168-17.22,1.26-17.22,9.156c0,4.787,3.191,7.056,6.972,7.056
		c5.292,0,8.652-3.359,9.828-6.803c0.252-0.757,0.42-1.597,0.42-2.353V297.312z"/>
	<path fill="#FFFFFF" d="M285.648,277.404c-0.168,2.94-0.336,6.216-0.336,11.172v23.604c0,9.323-1.85,15.036-5.797,18.563
		c-3.947,3.696-9.66,4.873-14.783,4.873c-4.873,0-10.248-1.177-13.524-3.361l1.849-5.627c2.688,1.681,6.889,3.19,11.928,3.19
		c7.561,0,13.104-3.946,13.104-14.194v-4.537h-0.168c-2.269,3.781-6.636,6.806-12.937,6.806c-10.08,0-17.305-8.568-17.305-19.825
		c0-13.776,8.988-21.587,18.313-21.587c7.056,0,10.92,3.696,12.684,7.056h0.168l0.336-6.132L285.648,277.404L285.648,277.404z
		 M278.004,293.448c0-1.26-0.084-2.352-0.42-3.36c-1.344-4.284-4.956-7.812-10.332-7.812c-7.057,0-12.096,5.964-12.096,15.372
		c0,7.98,4.031,14.616,12.012,14.616c4.536,0,8.652-2.855,10.248-7.56c0.42-1.261,0.588-2.688,0.588-3.948V293.448L278.004,293.448z
		"/>
	<path fill="#FFFFFF" d="M301.691,299.076c0.168,9.996,6.552,14.111,13.942,14.111c5.292,0,8.484-0.924,11.257-2.101l1.261,5.293
		c-2.604,1.177-7.057,2.521-13.524,2.521c-12.516,0-19.99-8.232-19.99-20.497c0-12.264,7.224-21.923,19.066-21.923
		c13.271,0,16.8,11.676,16.8,19.152c0,1.512-0.168,2.688-0.252,3.443H301.691L301.691,299.076z M323.363,293.784
		c0.084-4.704-1.933-12.012-10.248-12.012c-7.477,0-10.752,6.888-11.34,12.012H323.363z"/>
</g>
<g>
	<path fill="#FFFFFF" d="M98.667,468.602l-0.589-5.124h-0.252c-2.268,3.192-6.636,6.049-12.432,6.049
		c-8.231,0-12.432-5.796-12.432-11.677c0-9.827,8.735-15.204,24.443-15.119v-0.841c0-3.358-0.924-9.407-9.239-9.407
		c-3.78,0-7.729,1.176-10.584,3.023l-1.681-4.872c3.36-2.184,8.232-3.61,13.356-3.61c12.432,0,15.456,8.482,15.456,16.631v15.204
		c0,3.527,0.168,6.972,0.672,9.743H98.667L98.667,468.602z M97.574,447.854c-8.063-0.169-17.22,1.261-17.22,9.155
		c0,4.788,3.192,7.057,6.972,7.057c5.292,0,8.652-3.359,9.828-6.805c0.252-0.756,0.42-1.596,0.42-2.353V447.854z"/>
	<path fill="#FFFFFF" d="M118.826,427.946l7.98,22.848c1.344,3.695,2.436,7.056,3.276,10.416h0.252
		c0.924-3.36,2.1-6.721,3.443-10.416l7.896-22.848h7.728l-15.96,40.654h-7.056l-15.456-40.654H118.826L118.826,427.946z"/>
	<path fill="#FFFFFF" d="M178.55,468.602l-0.588-5.124h-0.252c-2.268,3.192-6.636,6.049-12.432,6.049
		c-8.232,0-12.433-5.796-12.433-11.677c0-9.827,8.736-15.204,24.444-15.119v-0.841c0-3.358-0.924-9.407-9.24-9.407
		c-3.78,0-7.728,1.176-10.584,3.023l-1.68-4.872c3.359-2.184,8.231-3.61,13.355-3.61c12.433,0,15.456,8.482,15.456,16.631v15.204
		c0,3.527,0.168,6.972,0.672,9.743H178.55L178.55,468.602z M177.458,447.854c-8.064-0.169-17.22,1.261-17.22,9.155
		c0,4.788,3.191,7.057,6.972,7.057c5.292,0,8.652-3.359,9.828-6.805c0.252-0.756,0.42-1.596,0.42-2.353V447.854z"/>
	<path fill="#FFFFFF" d="M204.757,416.523c0.084,2.52-1.764,4.534-4.703,4.534c-2.604,0-4.452-2.016-4.452-4.534
		c0-2.604,1.932-4.621,4.62-4.621C202.993,411.902,204.757,413.918,204.757,416.523z M196.525,468.602v-40.655h7.392v40.654
		L196.525,468.602L196.525,468.602z"/>
	<path fill="#FFFFFF" d="M216.181,408.962h7.392v59.64h-7.392V408.962z"/>
	<path fill="#FFFFFF" d="M258.518,468.602l-0.588-5.124h-0.253c-2.269,3.192-6.637,6.049-12.433,6.049
		c-8.23,0-12.432-5.796-12.432-11.677c0-9.827,8.734-15.204,24.443-15.119v-0.841c0-3.358-0.925-9.407-9.24-9.407
		c-3.779,0-7.729,1.176-10.584,3.023l-1.681-4.872c3.36-2.184,8.231-3.61,13.356-3.61c12.432,0,15.455,8.482,15.455,16.631v15.204
		c0,3.527,0.168,6.972,0.672,9.743H258.518L258.518,468.602z M257.425,447.854c-8.063-0.169-17.221,1.261-17.221,9.155
		c0,4.788,3.192,7.057,6.972,7.057c5.292,0,8.652-3.359,9.829-6.805c0.252-0.756,0.42-1.596,0.42-2.353V447.854z"/>
	<path fill="#FFFFFF" d="M276.156,468.602c0.168-2.771,0.336-6.888,0.336-10.5v-49.14h7.308v25.535h0.169
		c2.604-4.535,7.309-7.475,13.859-7.475c10.08,0,17.22,8.398,17.136,20.746c0,14.532-9.155,21.757-18.228,21.757
		c-5.881,0-10.584-2.269-13.608-7.645h-0.252l-0.336,6.72L276.156,468.602L276.156,468.602z M283.8,452.306
		c0,0.925,0.169,1.849,0.337,2.688c1.428,5.124,5.713,8.651,11.088,8.651c7.729,0,12.349-6.3,12.349-15.623
		c0-8.147-4.2-15.12-12.097-15.12c-5.039,0-9.744,3.443-11.256,9.071c-0.168,0.841-0.421,1.849-0.421,3.023V452.306z"/>
	<path fill="#FFFFFF" d="M324.286,408.962h7.393v59.64h-7.393V408.962z"/>
	<path fill="#FFFFFF" d="M348.226,449.618c0.168,9.995,6.553,14.111,13.943,14.111c5.292,0,8.484-0.925,11.257-2.101l1.26,5.292
		c-2.604,1.176-7.056,2.521-13.523,2.521c-12.516,0-19.991-8.231-19.991-20.495c0-12.266,7.224-21.924,19.067-21.924
		c13.271,0,16.8,11.676,16.8,19.15c0,1.512-0.168,2.688-0.252,3.444L348.226,449.618L348.226,449.618L348.226,449.618z
		 M369.897,444.325c0.084-4.703-1.933-12.012-10.248-12.012c-7.477,0-10.752,6.889-11.341,12.012H369.897z"/>
</g>
</svg>
