<?xml version="1.0" encoding="utf-8"?>
<!-- Generator: Adobe Illustrator 16.0.0, SVG Export Plug-In . SVG Version: 6.00 Build 0)  -->
<!DOCTYPE svg PUBLIC "-//W3C//DTD SVG 1.1//EN" "http://www.w3.org/Graphics/SVG/1.1/DTD/svg11.dtd">
<svg version="1.1" id="Layer_1" xmlns="http://www.w3.org/2000/svg" xmlns:xlink="http://www.w3.org/1999/xlink" x="0px" y="0px"
	 width="400.5px" height="401px" viewBox="49.5 108.5 400.5 401" enable-background="new 49.5 108.5 400.5 401"
	 xml:space="preserve">
<g>
	<path fill="#FFFFFF" d="M204.094,219.214v-45.753h7.979l18.145,23.148c4.2,5.362,7.476,10.182,10.164,14.867l0.168-0.068
		c-0.672-6.109-0.84-11.676-0.84-18.803v-19.143h6.888v45.753h-7.393l-17.976-23.216c-3.948-5.091-7.728-10.318-10.584-15.273
		l-0.252,0.068c0.42,5.77,0.588,11.269,0.588,18.872v19.55H204.094z"/>
	<path fill="#FFFFFF" d="M295.906,202.515c0,12.151-10.415,17.446-20.244,17.446c-11.004,0-19.487-6.517-19.487-16.903
		c0-10.998,8.904-17.446,20.16-17.446C288.01,185.612,295.906,192.468,295.906,202.515z M263.65,202.854
		c0,7.195,5.123,12.626,12.349,12.626c7.056,0,12.349-5.363,12.349-12.762c0-5.566-3.445-12.626-12.181-12.626
		C267.43,190.092,263.65,196.609,263.65,202.854z"/>
</g>
<g>
	<path fill="#FFFFFF" d="M153.653,282.968c0.084,2.037-1.764,3.666-4.704,3.666c-2.604,0-4.452-1.629-4.452-3.666
		c0-2.104,1.933-3.733,4.62-3.733C151.889,279.234,153.653,280.864,153.653,282.968z M145.421,325.056V292.2h7.393v32.856H145.421z"
		/>
	<path fill="#FFFFFF" d="M165.076,301.093c0-3.395-0.084-6.177-0.336-8.893h6.469l0.336,5.295h0.252
		c2.268-3.123,6.048-6.042,12.768-6.042c5.544,0,9.744,2.715,11.508,6.584h0.168c1.26-1.833,2.856-3.258,4.536-4.277
		c2.436-1.493,5.124-2.308,8.988-2.308c5.376,0,13.355,2.851,13.355,14.255v19.347h-7.224v-18.601c0-6.313-2.856-10.115-8.82-10.115
		c-4.2,0-7.476,2.512-8.735,5.431c-0.336,0.814-0.589,1.901-0.589,2.987v20.298h-7.224v-19.687c0-5.228-2.855-9.028-8.483-9.028
		c-4.62,0-7.98,2.987-9.156,5.974c-0.42,0.883-0.588,1.901-0.588,2.92v19.821h-7.225V301.093L165.076,301.093z"/>
	<path fill="#FFFFFF" d="M257.645,325.056l-0.588-4.141h-0.252c-2.269,2.579-6.637,4.888-12.433,4.888
		c-8.231,0-12.433-4.685-12.433-9.436c0-7.943,8.735-12.288,24.443-12.22v-0.679c0-2.716-0.924-7.603-9.24-7.603
		c-3.779,0-7.728,0.95-10.584,2.444l-1.68-3.938c3.359-1.765,8.23-2.918,13.355-2.918c12.433,0,15.455,6.856,15.455,13.44v12.288
		c0,2.851,0.168,5.635,0.672,7.874H257.645L257.645,325.056z M256.553,308.288c-8.064-0.136-17.22,1.019-17.22,7.399
		c0,3.868,3.19,5.702,6.972,5.702c5.293,0,8.652-2.714,9.828-5.497c0.252-0.612,0.42-1.291,0.42-1.901V308.288z"/>
	<path fill="#FFFFFF" d="M310.648,292.2c-0.168,2.376-0.336,5.023-0.336,9.029v19.075c0,7.534-1.851,12.15-5.797,15.001
		c-3.947,2.988-9.66,3.939-14.783,3.939c-4.873,0-10.248-0.951-13.524-2.718l1.849-4.547c2.688,1.358,6.889,2.579,11.928,2.579
		c7.562,0,13.104-3.189,13.104-11.472v-3.667h-0.168c-2.269,3.056-6.636,5.5-12.937,5.5c-10.08,0-17.305-6.923-17.305-16.021
		c0-11.133,8.987-17.445,18.313-17.445c7.056,0,10.92,2.986,12.684,5.702h0.168l0.336-4.956L310.648,292.2L310.648,292.2z
		 M303.004,305.166c0-1.019-0.084-1.901-0.42-2.715c-1.344-3.462-4.956-6.314-10.332-6.314c-7.057,0-12.096,4.82-12.096,12.422
		c0,6.449,4.031,11.812,12.012,11.812c4.536,0,8.652-2.306,10.248-6.108c0.42-1.02,0.588-2.174,0.588-3.191V305.166L303.004,305.166
		z"/>
	<path fill="#FFFFFF" d="M326.691,309.714c0.168,8.078,6.552,11.404,13.941,11.404c5.292,0,8.484-0.747,11.257-1.699l1.262,4.277
		c-2.604,0.952-7.058,2.038-13.524,2.038c-12.516,0-19.99-6.652-19.99-16.564c0-9.911,7.225-17.716,19.066-17.716
		c13.271,0,16.8,9.435,16.8,15.477c0,1.222-0.168,2.172-0.252,2.783H326.691L326.691,309.714z M348.363,305.438
		c0.084-3.802-1.934-9.708-10.248-9.708c-7.478,0-10.752,5.567-11.34,9.708H348.363z"/>
</g>
<g>
	<path fill="#FFFFFF" d="M123.667,446.714l-0.589-4.142h-0.252c-2.268,2.58-6.636,4.89-12.432,4.89
		c-8.231,0-12.432-4.684-12.432-9.438c0-7.94,8.735-12.286,24.443-12.217v-0.681c0-2.713-0.924-7.602-9.239-7.602
		c-3.78,0-7.729,0.95-10.584,2.442l-1.681-3.937c3.36-1.766,8.232-2.918,13.356-2.918c12.432,0,15.456,6.854,15.456,13.44v12.286
		c0,2.85,0.168,5.636,0.672,7.875L123.667,446.714L123.667,446.714z M122.574,429.947c-8.063-0.137-17.22,1.019-17.22,7.398
		c0,3.869,3.192,5.703,6.972,5.703c5.292,0,8.652-2.715,9.828-5.5c0.252-0.61,0.42-1.29,0.42-1.901V429.947z"/>
	<path fill="#FFFFFF" d="M143.826,413.858l7.98,18.465c1.344,2.986,2.436,5.701,3.276,8.417h0.252
		c0.924-2.716,2.1-5.431,3.443-8.417l7.896-18.465h7.728l-15.96,32.854h-7.056l-15.456-32.854H143.826L143.826,413.858z"/>
	<path fill="#FFFFFF" d="M203.55,446.714l-0.588-4.142h-0.252c-2.268,2.58-6.636,4.89-12.432,4.89
		c-8.232,0-12.433-4.684-12.433-9.438c0-7.94,8.736-12.286,24.444-12.217v-0.681c0-2.713-0.924-7.602-9.24-7.602
		c-3.78,0-7.728,0.95-10.584,2.442l-1.68-3.937c3.359-1.766,8.231-2.918,13.355-2.918c12.433,0,15.456,6.854,15.456,13.44v12.286
		c0,2.85,0.168,5.636,0.672,7.875L203.55,446.714L203.55,446.714z M202.458,429.947c-8.064-0.137-17.22,1.019-17.22,7.398
		c0,3.869,3.191,5.703,6.972,5.703c5.292,0,8.652-2.715,9.828-5.5c0.252-0.61,0.42-1.29,0.42-1.901V429.947z"/>
	<path fill="#FFFFFF" d="M229.757,404.628c0.084,2.036-1.764,3.663-4.702,3.663c-2.604,0-4.453-1.629-4.453-3.663
		c0-2.105,1.932-3.735,4.621-3.735C227.993,400.893,229.757,402.521,229.757,404.628z M221.525,446.714v-32.854h7.392v32.854
		L221.525,446.714L221.525,446.714z"/>
	<path fill="#FFFFFF" d="M241.182,398.517h7.392v48.197h-7.392V398.517z"/>
	<path fill="#FFFFFF" d="M283.518,446.714l-0.588-4.142h-0.253c-2.269,2.58-6.637,4.89-12.433,4.89
		c-8.23,0-12.432-4.684-12.432-9.438c0-7.94,8.733-12.286,24.442-12.217v-0.681c0-2.713-0.925-7.602-9.239-7.602
		c-3.779,0-7.729,0.95-10.584,2.442l-1.682-3.937c3.359-1.766,8.23-2.918,13.355-2.918c12.433,0,15.455,6.854,15.455,13.44v12.286
		c0,2.85,0.168,5.636,0.672,7.875L283.518,446.714L283.518,446.714z M282.425,429.947c-8.063-0.137-17.221,1.019-17.221,7.398
		c0,3.869,3.192,5.703,6.972,5.703c5.292,0,8.652-2.715,9.829-5.5c0.252-0.61,0.42-1.29,0.42-1.901V429.947z"/>
	<path fill="#FFFFFF" d="M301.156,446.714c0.168-2.238,0.336-5.566,0.336-8.485v-39.712h7.308v20.636h0.169
		c2.604-3.665,7.309-6.041,13.859-6.041c10.08,0,17.22,6.787,17.136,16.766c0,11.744-9.155,17.583-18.228,17.583
		c-5.881,0-10.584-1.834-13.608-6.179h-0.252l-0.336,5.431L301.156,446.714L301.156,446.714z M308.8,433.545
		c0,0.747,0.169,1.494,0.337,2.173c1.428,4.14,5.713,6.99,11.088,6.99c7.729,0,12.35-5.092,12.35-12.625
		c0-6.585-4.2-12.219-12.098-12.219c-5.039,0-9.744,2.781-11.256,7.33c-0.168,0.68-0.421,1.494-0.421,2.443V433.545z"/>
	<path fill="#FFFFFF" d="M349.286,398.517h7.393v48.197h-7.393V398.517z"/>
	<path fill="#FFFFFF" d="M373.226,431.372c0.168,8.078,6.554,11.404,13.943,11.404c5.292,0,8.484-0.748,11.257-1.698l1.26,4.277
		c-2.604,0.949-7.056,2.037-13.522,2.037c-12.516,0-19.991-6.652-19.991-16.563c0-9.914,7.225-17.719,19.067-17.719
		c13.271,0,16.8,9.437,16.8,15.477c0,1.222-0.168,2.172-0.252,2.783L373.226,431.372L373.226,431.372L373.226,431.372z
		 M394.897,427.095c0.084-3.801-1.934-9.707-10.248-9.707c-7.478,0-10.752,5.567-11.342,9.707H394.897z"/>
</g>
</svg>
