<?xml version="1.0" encoding="utf-8"?>
<!-- Generator: Adobe Illustrator 16.0.0, SVG Export Plug-In . SVG Version: 6.00 Build 0)  -->
<!DOCTYPE svg PUBLIC "-//W3C//DTD SVG 1.1//EN" "http://www.w3.org/Graphics/SVG/1.1/DTD/svg11.dtd">
<svg version="1.1" id="Layer_1" xmlns="http://www.w3.org/2000/svg" xmlns:xlink="http://www.w3.org/1999/xlink" x="0px" y="0px"
	 width="32px" height="32px" viewBox="0 0 32 32" enable-background="new 0 0 32 32" xml:space="preserve">
<path fill="#FFFFFF" d="M31.938,6.093C30.76,6.609,29.5,6.964,28.172,7.125c1.355-0.813,2.391-2.099,2.885-3.631
	c-1.271,0.74-2.677,1.276-4.172,1.579c-1.191-1.276-2.896-2.079-4.787-2.079c-3.625,0-6.563,2.937-6.563,6.557
	c0,0.521,0.063,1.021,0.172,1.495C10.254,10.791,5.42,8.171,2.187,4.213C1.619,5.177,1.296,6.297,1.296,7.516
	c0,2.281,1.161,4.281,2.916,5.457c-1.073-0.031-2.083-0.328-2.968-0.817v0.079c0,3.181,2.26,5.833,5.26,6.437
	C5.957,18.816,5.373,18.9,4.78,18.9c-0.421,0-0.823-0.041-1.224-0.114c0.844,2.604,3.26,4.5,6.14,4.557
	c-2.239,1.755-5.077,2.802-8.135,2.802c-0.521,0-1.041-0.024-1.563-0.088c2.917,1.859,6.36,2.947,10.079,2.947
	c12.067,0,18.661-9.995,18.661-18.651c0-0.276,0-0.557-0.021-0.839c1.287-0.917,2.401-2.079,3.281-3.396L31.938,6.093z"/>
</svg>
